<svg width="720" height="720" viewBox="0 0 720 720" fill="none" xmlns="http://www.w3.org/2000/svg">
<path d="M229.1 646V631.6H253.4V617.9H229.1V604H256V590H214V660H257.1V646H229.1ZM317.885 661.6C331.985 661.6 343.085 652.4 345.585 638.8H330.885C328.385 644.6 323.785 647.8 317.885 647.8C310.085 647.8 303.985 641.3 303.985 633C303.985 624.6 309.985 618.2 317.885 618.2C323.685 618.2 328.585 621.4 330.885 626.7H345.385C342.785 613.4 331.985 604.5 317.985 604.5C301.585 604.5 289.185 616.7 289.185 632.9C289.185 649.1 301.585 661.6 317.885 661.6ZM380.885 661.6C397.585 661.6 410.085 649.3 410.085 633C410.085 616.7 397.585 604.5 380.885 604.5C364.185 604.5 351.685 616.7 351.685 633C351.685 649.3 364.185 661.6 380.885 661.6ZM380.885 647.8C372.485 647.8 366.485 641.8 366.485 633C366.485 624.3 372.485 618.2 380.885 618.2C389.285 618.2 395.285 624.3 395.285 633C395.285 641.8 389.285 647.8 380.885 647.8ZM448.217 605.7C441.217 605.7 436.417 607.9 432.517 612.7L429.917 606H420.617V660H435.217V632C435.217 623.2 438.417 619.5 446.617 619.5H453.017V605.7H448.217ZM490.74 604.5C484.04 604.5 478.04 606.9 473.44 611L470.94 606H461.34V679.5H475.94V657.1C480.04 660 485.14 661.7 490.74 661.7C507.04 661.7 519.04 649.4 519.04 633C519.04 616.7 507.04 604.5 490.74 604.5ZM489.54 647.8C481.04 647.8 474.84 641.5 474.84 633C474.84 624.6 481.04 618.2 489.54 618.2C498.04 618.2 504.24 624.6 504.24 633C504.24 641.5 498.04 647.8 489.54 647.8Z" fill="black"/>
<path fill-rule="evenodd" clip-rule="evenodd" d="M278.43 265.282C276.696 263.133 277.033 259.984 279.182 258.251L420.768 144.049C422.917 142.316 423.254 139.168 421.52 137.018L367.369 69.8914C365.635 67.7422 362.488 67.4054 360.338 69.139L117.892 264.701C115.742 266.435 115.405 269.582 117.139 271.732L352.771 563.858C354.505 566.008 357.652 566.345 359.802 564.611L601.968 369.279C604.118 367.545 604.454 364.398 602.721 362.248L548.249 294.722C546.515 292.572 543.368 292.235 541.218 293.969L399.922 407.941C397.772 409.675 394.625 409.338 392.891 407.188L369.059 377.642C367.325 375.492 367.662 372.345 369.812 370.611L499.828 265.739C501.978 264.005 502.315 260.858 500.581 258.708L445.369 190.252C443.635 188.103 440.487 187.766 438.338 189.499L308.321 294.371C306.172 296.105 303.025 295.768 301.291 293.619L278.43 265.282Z" fill="black"/>
</svg>
